<svg xmlns="http://www.w3.org/2000/svg" viewBox="0 0 240 120">
  <defs>
    <linearGradient id="body" x1="0" y1="0" x2="0" y2="1">
      <stop offset="0%" stop-color="#a91e1e"/>
      <stop offset="50%" stop-color="#8b0000"/>
      <stop offset="100%" stop-color="#630000"/>
    </linearGradient>
  </defs>
  <ellipse cx="120" cy="100" rx="90" ry="6" fill="rgba(0,0,0,0.15)"/>
  <path d="M 20,78 L 20,68 Q 22,62 28,58 L 48,52 Q 58,48 68,44 L 80,38 Q 86,34 94,32 L 140,32 Q 150,34 156,38 L 168,44 Q 176,48 186,52 L 206,58 Q 214,62 218,68 L 218,78 Z" fill="url(#body)" stroke="#630000" stroke-width="0.5"/>
  <path d="M 20,78 L 20,70 Q 22,66 28,64 L 208,64 Q 214,66 218,70 L 218,78 Z" fill="#630000" opacity="0.25"/>
  <path d="M 82,38 Q 88,33 96,32 L 138,32 Q 148,33 154,38 L 164,44 Q 158,44 100,44 Z" fill="#8b0000" stroke="#630000" stroke-width="0.3"/>
  <path d="M 84,43 Q 90,35 100,33 L 120,33 L 120,43 Z" fill="#1a2a3a" opacity="0.85"/>
  <path d="M 122,43 L 122,33 L 136,33 Q 146,35 152,43 Z" fill="#1a2a3a" opacity="0.8"/>
  <rect x="15" y="64" width="9" height="7" rx="3" fill="#ffdd44" opacity="0.9"/>
  <rect x="214" y="64" width="8" height="7" rx="2" fill="#dd2222" opacity="0.9"/>
  <path d="M 30,56 Q 38,52 52,50" stroke="#a91e1e" stroke-width="0.8" fill="none" opacity="0.4"/>
  
    <circle cx="60" cy="80" r="14" fill="#1a1a1a"/>
    <circle cx="60" cy="80" r="13" fill="#2d2d2d"/>
    <circle cx="60" cy="80" r="11" fill="#888"/>
    <circle cx="60" cy="80" r="10" fill="#c0c0c0"/>
    <circle cx="60" cy="80" r="8" fill="#aaa"/>
    <circle cx="60" cy="80" r="6" fill="#666"/>
    <line x1="56" y1="76" x2="64" y2="84" stroke="#999" stroke-width="1.5"/>
    <line x1="64" y1="76" x2="56" y2="84" stroke="#999" stroke-width="1.5"/>
    <line x1="60" y1="75" x2="60" y2="85" stroke="#999" stroke-width="1.5"/>
    <circle cx="60" cy="80" r="2" fill="#444"/>
  
    <circle cx="180" cy="80" r="14" fill="#1a1a1a"/>
    <circle cx="180" cy="80" r="13" fill="#2d2d2d"/>
    <circle cx="180" cy="80" r="11" fill="#888"/>
    <circle cx="180" cy="80" r="10" fill="#c0c0c0"/>
    <circle cx="180" cy="80" r="8" fill="#aaa"/>
    <circle cx="180" cy="80" r="6" fill="#666"/>
    <line x1="176" y1="76" x2="184" y2="84" stroke="#999" stroke-width="1.5"/>
    <line x1="184" y1="76" x2="176" y2="84" stroke="#999" stroke-width="1.5"/>
    <line x1="180" y1="75" x2="180" y2="85" stroke="#999" stroke-width="1.5"/>
    <circle cx="180" cy="80" r="2" fill="#444"/>
</svg>