<svg xmlns="http://www.w3.org/2000/svg" viewBox="0 0 240 120">
  <defs>
    <linearGradient id="body" x1="0" y1="0" x2="0" y2="1">
      <stop offset="0%" stop-color="#404040"/>
      <stop offset="50%" stop-color="#222222"/>
      <stop offset="100%" stop-color="#000000"/>
    </linearGradient>
  </defs>
  <ellipse cx="120" cy="100" rx="90" ry="6" fill="rgba(0,0,0,0.15)"/>
  <path d="M 22,78 L 22,70 Q 24,65 30,62 L 50,58 Q 60,54 70,50 L 82,42 Q 88,37 96,35 L 142,35 Q 150,37 156,42 L 168,50 Q 178,54 188,58 L 208,62 Q 214,65 216,70 L 216,78 Z" fill="url(#body)" stroke="#000000" stroke-width="0.5"/>
  <path d="M 22,78 L 22,72 Q 24,68 30,66 L 210,66 Q 214,68 216,72 L 216,78 Z" fill="#000000" opacity="0.3"/>
  <path d="M 86,42 L 96,36 Q 100,34 108,34 L 132,34 Q 140,34 144,36 L 154,42 Z" fill="#222222" stroke="#000000" stroke-width="0.3"/>
  <path d="M 88,41 Q 92,36 100,35 L 118,35 L 118,41 Z" fill="#1a2a3a" opacity="0.85"/>
  <path d="M 120,41 L 120,35 L 136,35 Q 144,36 148,41 Z" fill="#1a2a3a" opacity="0.8"/>
  <rect x="18" y="66" width="8" height="6" rx="2" fill="#ffdd44" opacity="0.9"/>
  <rect x="212" y="66" width="8" height="6" rx="2" fill="#dd2222" opacity="0.9"/>
  <line x1="100" y1="42" x2="108" y2="66" stroke="#000000" stroke-width="0.5" opacity="0.3"/>
  <line x1="140" y1="42" x2="148" y2="66" stroke="#000000" stroke-width="0.5" opacity="0.3"/>
  <path d="M 30,60 Q 36,57 50,56" stroke="#404040" stroke-width="0.8" fill="none" opacity="0.5"/>
  
    <circle cx="62" cy="80" r="14" fill="#1a1a1a"/>
    <circle cx="62" cy="80" r="13" fill="#2d2d2d"/>
    <circle cx="62" cy="80" r="11" fill="#888"/>
    <circle cx="62" cy="80" r="10" fill="#c0c0c0"/>
    <circle cx="62" cy="80" r="8" fill="#aaa"/>
    <circle cx="62" cy="80" r="6" fill="#666"/>
    <line x1="58" y1="76" x2="66" y2="84" stroke="#999" stroke-width="1.5"/>
    <line x1="66" y1="76" x2="58" y2="84" stroke="#999" stroke-width="1.5"/>
    <line x1="62" y1="75" x2="62" y2="85" stroke="#999" stroke-width="1.5"/>
    <circle cx="62" cy="80" r="2" fill="#444"/>
  
    <circle cx="178" cy="80" r="14" fill="#1a1a1a"/>
    <circle cx="178" cy="80" r="13" fill="#2d2d2d"/>
    <circle cx="178" cy="80" r="11" fill="#888"/>
    <circle cx="178" cy="80" r="10" fill="#c0c0c0"/>
    <circle cx="178" cy="80" r="8" fill="#aaa"/>
    <circle cx="178" cy="80" r="6" fill="#666"/>
    <line x1="174" y1="76" x2="182" y2="84" stroke="#999" stroke-width="1.5"/>
    <line x1="182" y1="76" x2="174" y2="84" stroke="#999" stroke-width="1.5"/>
    <line x1="178" y1="75" x2="178" y2="85" stroke="#999" stroke-width="1.5"/>
    <circle cx="178" cy="80" r="2" fill="#444"/>
</svg>