<svg xmlns="http://www.w3.org/2000/svg" viewBox="0 0 240 120">
  <defs>
    <linearGradient id="body" x1="0" y1="0" x2="0" y2="1">
      <stop offset="0%" stop-color="#4b9858"/>
      <stop offset="50%" stop-color="#2d7a3a"/>
      <stop offset="100%" stop-color="#055212"/>
    </linearGradient>
  </defs>
  <ellipse cx="120" cy="102" rx="92" ry="6" fill="rgba(0,0,0,0.15)"/>
  <path d="M 20,80 L 20,62 Q 22,56 30,52 L 52,46 L 72,40 L 84,30 Q 90,24 100,22 L 156,22 Q 164,24 168,28 L 176,36 L 192,42 Q 208,48 214,52 L 218,58 L 218,80 Z" fill="url(#body)" stroke="#055212" stroke-width="0.5"/>
  <path d="M 20,80 L 20,66 Q 22,62 30,60 L 208,60 Q 214,62 218,66 L 218,80 Z" fill="#055212" opacity="0.25"/>
  <path d="M 86,30 Q 92,24 102,23 L 154,23 Q 162,24 166,28 L 174,36 Q 170,38 168,40 L 78,40 Z" fill="#2d7a3a" stroke="#055212" stroke-width="0.3"/>
  <path d="M 88,39 Q 94,26 104,24 L 126,24 L 126,39 Z" fill="#1a2a3a" opacity="0.85"/>
  <path d="M 128,39 L 128,24 L 152,24 Q 160,26 166,34 L 168,39 Z" fill="#1a2a3a" opacity="0.8"/>
  <rect x="15" y="56" width="10" height="8" rx="3" fill="#ffdd44" opacity="0.9"/>
  <rect x="214" y="56" width="8" height="8" rx="2" fill="#dd2222" opacity="0.9"/>
  <path d="M 35,50 Q 44,46 58,44" stroke="#4b9858" stroke-width="0.8" fill="none" opacity="0.4"/>
  <rect x="192" y="42" width="4" height="14" rx="1" fill="#055212" opacity="0.15"/>
  
    <circle cx="58" cy="82" r="16" fill="#1a1a1a"/>
    <circle cx="58" cy="82" r="15" fill="#2d2d2d"/>
    <circle cx="58" cy="82" r="13" fill="#888"/>
    <circle cx="58" cy="82" r="12" fill="#c0c0c0"/>
    <circle cx="58" cy="82" r="10" fill="#aaa"/>
    <circle cx="58" cy="82" r="8" fill="#666"/>
    <line x1="54" y1="78" x2="62" y2="86" stroke="#999" stroke-width="1.5"/>
    <line x1="62" y1="78" x2="54" y2="86" stroke="#999" stroke-width="1.5"/>
    <line x1="58" y1="77" x2="58" y2="87" stroke="#999" stroke-width="1.5"/>
    <circle cx="58" cy="82" r="2" fill="#444"/>
  
    <circle cx="182" cy="82" r="16" fill="#1a1a1a"/>
    <circle cx="182" cy="82" r="15" fill="#2d2d2d"/>
    <circle cx="182" cy="82" r="13" fill="#888"/>
    <circle cx="182" cy="82" r="12" fill="#c0c0c0"/>
    <circle cx="182" cy="82" r="10" fill="#aaa"/>
    <circle cx="182" cy="82" r="8" fill="#666"/>
    <line x1="178" y1="78" x2="186" y2="86" stroke="#999" stroke-width="1.5"/>
    <line x1="186" y1="78" x2="178" y2="86" stroke="#999" stroke-width="1.5"/>
    <line x1="182" y1="77" x2="182" y2="87" stroke="#999" stroke-width="1.5"/>
    <circle cx="182" cy="82" r="2" fill="#444"/>
</svg>