<svg xmlns="http://www.w3.org/2000/svg" viewBox="0 0 240 120">
  <defs>
    <linearGradient id="body" x1="0" y1="0" x2="0" y2="1">
      <stop offset="0%" stop-color="#ea4040"/>
      <stop offset="50%" stop-color="#cc2222"/>
      <stop offset="100%" stop-color="#a40000"/>
    </linearGradient>
  </defs>
  <ellipse cx="120" cy="100" rx="80" ry="6" fill="rgba(0,0,0,0.15)"/>
  <path d="M 32,78 L 32,64 Q 34,58 42,54 L 60,48 L 78,42 L 90,34 Q 96,28 106,26 L 144,26 Q 152,28 156,32 L 166,40 L 180,48 Q 194,54 200,58 L 204,64 L 204,78 Z" fill="url(#body)" stroke="#a40000" stroke-width="0.5"/>
  <path d="M 32,78 L 32,68 Q 34,64 42,62 L 196,62 Q 200,64 204,68 L 204,78 Z" fill="#a40000" opacity="0.25"/>
  <path d="M 92,34 Q 98,28 108,27 L 142,27 Q 150,28 154,32 L 162,40 L 82,42 Z" fill="#cc2222" stroke="#a40000" stroke-width="0.3"/>
  <path d="M 94,41 Q 100,30 110,28 L 122,28 L 122,41 Z" fill="#1a2a3a" opacity="0.85"/>
  <path d="M 124,41 L 124,28 L 140,28 Q 148,30 156,41 Z" fill="#1a2a3a" opacity="0.8"/>
  <rect x="28" y="58" width="9" height="7" rx="3" fill="#ffdd44" opacity="0.9"/>
  <rect x="200" y="58" width="8" height="7" rx="2" fill="#dd2222" opacity="0.9"/>
  <path d="M 48,52 Q 56,48 68,46" stroke="#ea4040" stroke-width="0.8" fill="none" opacity="0.4"/>
  
    <circle cx="72" cy="80" r="13" fill="#1a1a1a"/>
    <circle cx="72" cy="80" r="12" fill="#2d2d2d"/>
    <circle cx="72" cy="80" r="10" fill="#888"/>
    <circle cx="72" cy="80" r="9" fill="#c0c0c0"/>
    <circle cx="72" cy="80" r="7" fill="#aaa"/>
    <circle cx="72" cy="80" r="5" fill="#666"/>
    <line x1="68" y1="76" x2="76" y2="84" stroke="#999" stroke-width="1.5"/>
    <line x1="76" y1="76" x2="68" y2="84" stroke="#999" stroke-width="1.5"/>
    <line x1="72" y1="75" x2="72" y2="85" stroke="#999" stroke-width="1.5"/>
    <circle cx="72" cy="80" r="2" fill="#444"/>
  
    <circle cx="168" cy="80" r="13" fill="#1a1a1a"/>
    <circle cx="168" cy="80" r="12" fill="#2d2d2d"/>
    <circle cx="168" cy="80" r="10" fill="#888"/>
    <circle cx="168" cy="80" r="9" fill="#c0c0c0"/>
    <circle cx="168" cy="80" r="7" fill="#aaa"/>
    <circle cx="168" cy="80" r="5" fill="#666"/>
    <line x1="164" y1="76" x2="172" y2="84" stroke="#999" stroke-width="1.5"/>
    <line x1="172" y1="76" x2="164" y2="84" stroke="#999" stroke-width="1.5"/>
    <line x1="168" y1="75" x2="168" y2="85" stroke="#999" stroke-width="1.5"/>
    <circle cx="168" cy="80" r="2" fill="#444"/>
</svg>