<svg xmlns="http://www.w3.org/2000/svg" viewBox="0 0 240 120">
  <defs>
    <linearGradient id="body" x1="0" y1="0" x2="0" y2="1">
      <stop offset="0%" stop-color="#f2be35"/>
      <stop offset="50%" stop-color="#d4a017"/>
      <stop offset="100%" stop-color="#ac7800"/>
    </linearGradient>
  </defs>
  <ellipse cx="120" cy="100" rx="82" ry="6" fill="rgba(0,0,0,0.15)"/>
  <path d="M 36,78 L 36,62 Q 38,56 46,52 L 62,48 Q 72,44 80,38 Q 86,30 96,26 Q 110,22 124,22 Q 140,22 150,26 Q 160,30 164,38 L 172,44 Q 182,48 192,52 Q 198,56 200,62 L 200,78 Z" fill="url(#body)" stroke="#ac7800" stroke-width="0.5"/>
  <path d="M 36,78 L 36,68 Q 38,64 46,62 L 192,62 Q 198,64 200,68 L 200,78 Z" fill="#ac7800" opacity="0.25"/>
  <path d="M 82,38 Q 88,30 98,26 Q 112,22 126,22 Q 142,24 150,28 Q 158,32 162,38 L 170,44 L 76,44 Z" fill="#d4a017" stroke="#ac7800" stroke-width="0.3"/>
  <path d="M 90,43 Q 96,30 108,25 L 122,24 L 122,43 Z" fill="#1a2a3a" opacity="0.85"/>
  <path d="M 124,43 L 124,24 L 138,25 Q 150,30 158,43 Z" fill="#1a2a3a" opacity="0.8"/>
  <circle cx="38" cy="58" r="5" fill="#ffdd44" opacity="0.8"/>
  <circle cx="200" cy="58" r="5" fill="#dd2222" opacity="0.8"/>
  <path d="M 50,50 Q 58,46 70,44" stroke="#f2be35" stroke-width="0.8" fill="none" opacity="0.4"/>
  
    <circle cx="72" cy="80" r="14" fill="#1a1a1a"/>
    <circle cx="72" cy="80" r="13" fill="#2d2d2d"/>
    <circle cx="72" cy="80" r="11" fill="#888"/>
    <circle cx="72" cy="80" r="10" fill="#c0c0c0"/>
    <circle cx="72" cy="80" r="8" fill="#aaa"/>
    <circle cx="72" cy="80" r="6" fill="#666"/>
    <line x1="68" y1="76" x2="76" y2="84" stroke="#999" stroke-width="1.5"/>
    <line x1="76" y1="76" x2="68" y2="84" stroke="#999" stroke-width="1.5"/>
    <line x1="72" y1="75" x2="72" y2="85" stroke="#999" stroke-width="1.5"/>
    <circle cx="72" cy="80" r="2" fill="#444"/>
  
    <circle cx="166" cy="80" r="14" fill="#1a1a1a"/>
    <circle cx="166" cy="80" r="13" fill="#2d2d2d"/>
    <circle cx="166" cy="80" r="11" fill="#888"/>
    <circle cx="166" cy="80" r="10" fill="#c0c0c0"/>
    <circle cx="166" cy="80" r="8" fill="#aaa"/>
    <circle cx="166" cy="80" r="6" fill="#666"/>
    <line x1="162" y1="76" x2="170" y2="84" stroke="#999" stroke-width="1.5"/>
    <line x1="170" y1="76" x2="162" y2="84" stroke="#999" stroke-width="1.5"/>
    <line x1="166" y1="75" x2="166" y2="85" stroke="#999" stroke-width="1.5"/>
    <circle cx="166" cy="80" r="2" fill="#444"/>
</svg>